<svg width="163" height="26" viewBox="0 0 163 26" fill="none" xmlns="http://www.w3.org/2000/svg">
<path d="M14.8656 25H9.77187L0.428123 1.5625H5.475L12.3187 19.5L19.1312 1.5625H24.1937L14.8656 25ZM33.1375 25.3125C31.5333 25.3125 30.0958 24.9635 28.825 24.2656C27.5542 23.5573 26.5542 22.5938 25.825 21.375C25.1062 20.1458 24.7469 18.75 24.7469 17.1875C24.7469 15.6354 25.1062 14.25 25.825 13.0312C26.5542 11.8021 27.5542 10.8333 28.825 10.125C30.0958 9.41667 31.5333 9.0625 33.1375 9.0625C34.7417 9.0625 36.1687 9.41667 37.4187 10.125C38.6792 10.8333 39.6687 11.8021 40.3875 13.0312C41.1167 14.25 41.4812 15.6354 41.4812 17.1875C41.4812 18.75 41.1167 20.1458 40.3875 21.375C39.6687 22.5938 38.6792 23.5573 37.4187 24.2656C36.1687 24.9635 34.7417 25.3125 33.1375 25.3125ZM33.1219 21.2969C33.8406 21.2969 34.4812 21.1198 35.0437 20.7656C35.6167 20.401 36.0646 19.9115 36.3875 19.2969C36.7208 18.6719 36.8875 17.9583 36.8875 17.1562C36.8875 16.3854 36.7208 15.6927 36.3875 15.0781C36.0646 14.4635 35.6167 13.9792 35.0437 13.625C34.4812 13.2604 33.8406 13.0781 33.1219 13.0781C32.3927 13.0781 31.7417 13.2604 31.1687 13.625C30.6062 13.9792 30.1583 14.4635 29.825 15.0781C29.5021 15.6927 29.3406 16.3854 29.3406 17.1562C29.3406 17.9583 29.5021 18.6719 29.825 19.2969C30.1583 19.9115 30.6062 20.401 31.1687 20.7656C31.7417 21.1198 32.3927 21.2969 33.1219 21.2969ZM56.7063 24.5938C55.5083 25.0729 54.3469 25.3125 53.2219 25.3125C52.0552 25.3125 51.024 25.0677 50.1281 24.5781C49.2427 24.0781 48.55 23.3854 48.05 22.5C47.55 21.6042 47.3 20.5729 47.3 19.4062V13.375H44.5656V9.375H47.5344V5.46875H51.7844V9.375H56.1125V13.375H51.7844V18.5938C51.7844 19.4479 52.0188 20.1146 52.4875 20.5938C52.9563 21.0625 53.5396 21.2969 54.2375 21.2969C54.8729 21.2969 55.4927 21.099 56.0969 20.7031L56.7063 24.5938ZM75.3062 23.25C73.3687 24.625 71.249 25.3125 68.9469 25.3125C67.2385 25.3125 65.7021 24.9479 64.3375 24.2188C62.9833 23.4792 61.9104 22.4792 61.1187 21.2188C60.3375 19.9583 59.9469 18.5365 59.9469 16.9531C59.9469 15.4427 60.301 14.0938 61.0094 12.9062C61.7281 11.7188 62.7021 10.7812 63.9312 10.0938C65.1604 9.40625 66.5562 9.0625 68.1187 9.0625C69.7333 9.0625 71.1552 9.44271 72.3844 10.2031C73.6135 10.9531 74.5719 12.0052 75.2594 13.3594C75.9469 14.7031 76.2906 16.2604 76.2906 18.0312V18.5312H64.775C64.9625 19.1458 65.2698 19.6875 65.6969 20.1562C66.124 20.6146 66.6552 20.9792 67.2906 21.25C67.926 21.5208 68.6552 21.6562 69.4781 21.6562C71.0719 21.6562 72.5562 21.1406 73.9312 20.1094L75.3062 23.25ZM64.5719 16.25H72.15C72.0667 15.5729 71.8531 14.9792 71.5094 14.4688C71.176 13.9479 70.7333 13.5417 70.1812 13.25C69.6396 12.9583 69.0302 12.8125 68.3531 12.8125C67.6656 12.8125 67.051 12.9635 66.5094 13.2656C65.9781 13.5677 65.5458 13.974 65.2125 14.4844C64.8792 14.9948 64.6656 15.5833 64.5719 16.25Z" fill="black"/>
<path d="M84.25 25H79.2031L88.5469 1.5625H93.625L102.953 25H97.9062L95.9844 19.9688H86.1719L84.25 25ZM87.75 15.75H94.4219L91.0781 7.0625L87.75 15.75ZM110.772 25H106.834V1.5625H111.319V11.1562C111.975 10.5 112.735 9.98958 113.6 9.625C114.475 9.25 115.423 9.0625 116.444 9.0625C117.881 9.0625 119.157 9.41667 120.272 10.125C121.386 10.8229 122.267 11.7865 122.913 13.0156C123.558 14.2344 123.881 15.625 123.881 17.1875C123.881 18.7396 123.558 20.1302 122.913 21.3594C122.267 22.5885 121.386 23.5573 120.272 24.2656C119.157 24.9635 117.881 25.3125 116.444 25.3125C115.34 25.3125 114.319 25.099 113.381 24.6719C112.454 24.2344 111.657 23.6354 110.991 22.875L110.772 25ZM115.303 21.2969C116.064 21.2969 116.741 21.1198 117.334 20.7656C117.939 20.4115 118.413 19.9219 118.756 19.2969C119.11 18.6719 119.288 17.9635 119.288 17.1719C119.288 16.3906 119.11 15.6927 118.756 15.0781C118.413 14.4531 117.939 13.9635 117.334 13.6094C116.741 13.2552 116.064 13.0781 115.303 13.0781C114.584 13.0781 113.928 13.2396 113.334 13.5625C112.751 13.8854 112.282 14.3281 111.928 14.8906C111.574 15.4531 111.371 16.099 111.319 16.8281V17.5156C111.371 18.2448 111.574 18.8958 111.928 19.4688C112.282 20.0312 112.751 20.4792 113.334 20.8125C113.918 21.1354 114.574 21.2969 115.303 21.2969ZM133.137 25H128.341V0.9375H133.137V25ZM152.956 23.25C151.019 24.625 148.899 25.3125 146.597 25.3125C144.889 25.3125 143.352 24.9479 141.987 24.2188C140.633 23.4792 139.56 22.4792 138.769 21.2188C137.987 19.9583 137.597 18.5365 137.597 16.9531C137.597 15.4427 137.951 14.0938 138.659 12.9062C139.378 11.7188 140.352 10.7812 141.581 10.0938C142.81 9.40625 144.206 9.0625 145.769 9.0625C147.383 9.0625 148.805 9.44271 150.034 10.2031C151.264 10.9531 152.222 12.0052 152.909 13.3594C153.597 14.7031 153.941 16.2604 153.941 18.0312V18.5312H142.425C142.612 19.1458 142.92 19.6875 143.347 20.1562C143.774 20.6146 144.305 20.9792 144.941 21.25C145.576 21.5208 146.305 21.6562 147.128 21.6562C148.722 21.6562 150.206 21.1406 151.581 20.1094L152.956 23.25ZM142.222 16.25H149.8C149.717 15.5729 149.503 14.9792 149.159 14.4688C148.826 13.9479 148.383 13.5417 147.831 13.25C147.29 12.9583 146.68 12.8125 146.003 12.8125C145.316 12.8125 144.701 12.9635 144.159 13.2656C143.628 13.5677 143.196 13.974 142.862 14.4844C142.529 14.9948 142.316 15.5833 142.222 16.25ZM160.259 25.3125C159.634 25.3125 159.124 25.1198 158.728 24.7344C158.343 24.3385 158.15 23.8229 158.15 23.1875C158.15 22.5521 158.343 22.0417 158.728 21.6562C159.124 21.2604 159.634 21.0625 160.259 21.0625C160.895 21.0625 161.41 21.2604 161.806 21.6562C162.202 22.0417 162.4 22.5521 162.4 23.1875C162.4 23.8229 162.202 24.3385 161.806 24.7344C161.41 25.1198 160.895 25.3125 160.259 25.3125Z" fill="#312783"/>
</svg>
